<?xml version="1.0" encoding="UTF-8"?><svg id="a" xmlns="http://www.w3.org/2000/svg" width="17.34cm" height="18.67cm" xmlns:xlink="http://www.w3.org/1999/xlink" viewBox="0 0 491.54 529.12"><defs><style>.ar{fill:url(#k);}.as{fill:url(#am);}.at{fill:url(#w);}.au{fill:url(#ao);}.av{fill:url(#ak);}.aw{fill:url(#t);}.ax{fill:url(#ae);}.ay{fill:url(#aj);}.az{fill:url(#c);}.ba{fill:url(#d);}.bb{fill:url(#l);}.bc{fill:url(#h);}.bd{fill:url(#o);}.be{fill:url(#j);}.bf{fill:url(#an);}.bg{fill:url(#g);}.bh{fill:url(#z);}.bi{fill:url(#q);}.bj{fill:url(#ap);}.bk{fill:url(#m);}.bl{fill:url(#aa);}.bm{fill:url(#ab);}.bn{fill:url(#aq);}.bo{fill:url(#e);}.bp{fill:url(#i);}.bq{fill:url(#ai);}.br{fill:url(#ac);}.bs{fill:url(#f);}.bt{fill:url(#v);}.bu{fill:url(#x);}.bv{fill:url(#p);}.bw{fill:url(#y);}.bx{fill:url(#al);}.by{fill:url(#b);}.bz{fill:url(#r);}.ca{fill:url(#ag);}.cb{fill:url(#n);}.cc{fill:url(#u);}.cd{fill:url(#af);}.ce{fill:url(#ad);}.cf{fill:url(#ah);}.cg{fill:url(#s);}</style><linearGradient id="b" x1="633.68" y1="128.89" x2="634.18" y2="128.89" gradientUnits="userSpaceOnUse"><stop offset="0" stop-color="#000"/><stop offset="1" stop-color="#000"/></linearGradient><linearGradient id="c" y1="232.47" y2="232.47" xlink:href="#b"/><linearGradient id="d" y1="211.78" y2="211.78" xlink:href="#b"/><linearGradient id="e" y1="146.27" y2="146.27" xlink:href="#b"/><linearGradient id="f" y1="338.6" y2="338.6" xlink:href="#b"/><linearGradient id="g" y1="374.9" y2="374.9" xlink:href="#b"/><linearGradient id="h" y1="368.4" y2="368.4" xlink:href="#b"/><linearGradient id="i" y1="338.95" y2="338.95" xlink:href="#b"/><linearGradient id="j" y1="349.15" y2="349.15" xlink:href="#b"/><linearGradient id="k" y1="349.15" y2="349.15" xlink:href="#b"/><linearGradient id="l" y1="338.81" y2="338.81" xlink:href="#b"/><linearGradient id="m" y1="408.29" y2="408.29" xlink:href="#b"/><linearGradient id="n" y1="416.26" y2="416.26" xlink:href="#b"/><linearGradient id="o" y1="416.26" y2="416.26" xlink:href="#b"/><linearGradient id="p" y1="416.26" y2="416.26" xlink:href="#b"/><linearGradient id="q" y1="427.61" y2="427.61" xlink:href="#b"/><linearGradient id="r" y1="416.26" y2="416.26" xlink:href="#b"/><linearGradient id="s" y1="303.34" y2="303.34" xlink:href="#b"/><linearGradient id="t" y1="321.51" y2="321.51" xlink:href="#b"/><linearGradient id="u" y1="301.65" y2="301.65" xlink:href="#b"/><linearGradient id="v" y1="301.65" y2="301.65" xlink:href="#b"/><linearGradient id="w" y1="301.65" y2="301.65" xlink:href="#b"/><linearGradient id="x" y1="283.14" y2="283.14" xlink:href="#b"/><linearGradient id="y" y1="420.57" y2="420.57" xlink:href="#b"/><linearGradient id="z" y1="420.57" y2="420.57" xlink:href="#b"/><linearGradient id="aa" y1="420.57" y2="420.57" xlink:href="#b"/><linearGradient id="ab" y1="420.57" y2="420.57" xlink:href="#b"/><linearGradient id="ac" y1="416.73" y2="416.73" xlink:href="#b"/><linearGradient id="ad" x1="49.4" y1="219.27" x2="442.14" y2="219.27" gradientUnits="userSpaceOnUse"><stop offset="0" stop-color="#c8a250"/><stop offset=".5" stop-color="#efdaac"/><stop offset="1" stop-color="#c8a250"/></linearGradient><linearGradient id="ae" x1="0" y1="497.69" x2="491.54" y2="497.69" xlink:href="#ad"/><linearGradient id="af" x1="0" y1="497.69" x2="491.54" y2="497.69" xlink:href="#ad"/><linearGradient id="ag" x1="0" y1="497.69" x2="491.54" y2="497.69" xlink:href="#ad"/><linearGradient id="ah" x1="0" y1="497.69" x2="491.54" y2="497.69" xlink:href="#ad"/><linearGradient id="ai" x1="0" y1="497.69" x2="491.54" y2="497.69" xlink:href="#ad"/><linearGradient id="aj" x1="0" y1="497.69" x2="491.54" y2="497.69" xlink:href="#ad"/><linearGradient id="ak" x1="0" y1="497.69" x2="491.54" y2="497.69" xlink:href="#ad"/><linearGradient id="al" x1="0" y1="497.69" x2="491.54" y2="497.69" xlink:href="#ad"/><linearGradient id="am" x1="0" y1="497.69" x2="491.54" y2="497.69" xlink:href="#ad"/><linearGradient id="an" x1="0" y1="497.69" x2="491.54" y2="497.69" xlink:href="#ad"/><linearGradient id="ao" x1="0" y1="497.69" x2="491.54" y2="497.69" xlink:href="#ad"/><linearGradient id="ap" x1="0" y1="497.69" x2="491.54" y2="497.69" xlink:href="#ad"/><linearGradient id="aq" x1="0" y1="497.69" x2="491.54" y2="497.69" xlink:href="#ad"/></defs><path class="by" d="M157.1,257.2h11.73V109.64l18.05-7.12-.53-1.51-17.52,5.42v-6.95l25.09-9.33-.5-1.52-24.58,7.18v-54.71l75.36-27.46.57,12.68h1.6s.6-13.34.6-13.34l75.66,27.94v54.96l-24.9-7.26-.5,1.52,25.4,9.44v6.92l-17.85-5.5-.53,1.51,18.38,7.25v147.43h.56v.57h66.27l-1.29-1.35s-2.95-3.09-4.64-4.81c-1.5-1.5-2.32-4.92-2.33-4.95l-.15-.62h-7.78v-26.11c.02-.19.65-4.77-3.08-9.35-2.06-2.6-8.33-3.32-9.12-3.4h-21.87v11.75h22.32v27.12h-27.17V32.54h-.59L247.51.68l-.15-.68-.85.31-.74-.28-.23.63-87.55,31.88-.9.1v.26l-.4.16.35.77.05,223.39Z"/><path class="az" d="M154.45,246.02h-23.71v-27.11h22.32v-11.75h-21.91c-.71.08-6.97.8-9.09,3.4-3.7,4.6-3.05,9.16-3.03,9.23v26.23h-7.82l-.14.62c-.22.96-1.06,3.73-2.31,4.98-1.7,1.7-4.66,4.79-4.66,4.79l-1.3,1.36h51.67v-11.75Z"/><path class="ba" d="M270.02,211.78c0-3.07-2.5-5.58-5.57-5.58s-5.59,2.5-5.59,5.58,2.51,5.58,5.59,5.58,5.57-2.5,5.57-5.58Z"/><path class="bo" d="M305.63,110.57h-.62c-2.96-5.42-16.86-27.82-50.33-40.85-1.73-2.66-3.65-4.1-5.2-4.89.54-.78.84-1.69.84-2.63,0-1.54-.79-2.95-2.06-3.79.83-1.04,1.34-2.57,1.34-4.22,0-.19-1.95-19.39-3.89-19.39-.79,0-1.03,0-2.52,8.98-.69,4.15-1.38,8.98-1.38,10.41,0,1.65.5,3.18,1.34,4.22-1.26.84-2.05,2.25-2.05,3.79,0,.98.31,1.93.87,2.7-2.62,1.36-4.34,3.6-5.24,5.03-36.89,14.47-50.17,40.54-50.3,40.8l-.08,92.41h11.72v-91.76c22.14-25.89,42.33-30.92,47.85-31.84,5.82.95,26.46,6.11,47.99,32.66v133.83h-23.6v-22.09c-.23-1.9-1.74-5.49-5.86-5.49s-5.67,3.59-5.9,5.59v22h-21.26v-26.11c.02-.19.64-4.76-3.05-9.36-2.11-2.59-8.37-3.31-9.16-3.39h-38.59v11.75h39.06v27.11h-37.52v11.72h117.6V110.57Z"/><path class="bs" d="M440.6,283.42c-.03.08-3.4,7.58-9.9,7.27l-4.5-.27,4.14,1.8c.1.04,2.5,1.13,2.5,5.18v77.61h-12.9v-79.12c-.24-2.74,2.3-4.58,2.32-4.6l2.26-1.61-2.77.16c-6.42.31-9.56-8.54-9.59-8.63l-1.56-4.64v98.65l-15.79.2c-8.57-1.78-14.77-5.6-18.43-11.34-5.67-8.9-3.25-19.52-3.23-19.62,3.33-13.6,11.92-24.64,12.01-24.76,9.49-12.66,7.52-25.43,7.43-26.01-3.45-15.64-15.82-16.41-16.03-16.42-16.6,1.08-27.34.01-27.45,0l-2.64-.27,2.05,1.69c2.84,2.34,9.27,5.3,11.66,6.36-4.51,6.77-3.01,14.26-2.94,14.59l.63,2.99.92-2.91c3.17-10.01,8.4-11.28,8.64-11.36,3.84-1.85,7.03-2.1,9.47-.74,4.31,2.4,5.08,9.07,5.1,9.21,2.21,10.76-6.49,21.77-6.57,21.87-11.28,13.55-13.11,30.1-13.13,30.37.42,14.04,7.14,22.99,10.37,26.48h-41.09c-8.97-1.65-15.45-5.45-19.26-11.29-5.82-8.93-3.37-19.71-3.34-19.81,3.3-13.6,11.89-24.64,11.97-24.74,10.41-13.15,7.57-25.52,7.45-26.02-3.46-15.64-15.79-16.41-16.01-16.42-16.63,1.08-27.34.01-27.45,0l-2.61-.27,2.02,1.68c2.82,2.34,9.25,5.3,11.65,6.36-4.51,6.77-3,14.26-2.93,14.59l.63,2.98.92-2.91c3.16-10.01,8.39-11.28,8.62-11.36,3.85-1.85,7.05-2.1,9.5-.74,4.32,2.4,5.09,9.07,5.11,9.2,2.15,10.76-6.5,21.78-6.57,21.88-11.3,13.55-13.14,30.1-13.16,30.38.45,14.43,7.54,23.49,10.68,26.8h-6.52c-7.85.58-10.22,10.85-10.34,11.46,0,13.09,10.29,13.25,10.4,13.25h11.24c4.61,0,7.5-1.15,7.75-1.26,8.73-5.48,17.59-6.64,17.68-6.65l-.1-1.6h-34.3c-1.06-1.01-1.54-1.97-1.45-2.86.13-1.17,1.23-2.02,1.65-2.3h130.24c.85,6.6,5.51,11.88,5.72,12.11l1.4,1.56v-119.77l-1.54,3.58Z"/><path class="bg" d="M257.05,360.82l-.18.04c-13.48,4.35-14.04,13.81-14.06,14.24v10.76h15.35c-.46,6.24-4.4,7.03-4.73,7.1-6.89,2.71-11.52-4.06-11.71-4.34l-2.88-4.3,1.45,4.97c3.08,10.59,14.15,10.73,14.33,10.73,12.4-.45,13.84-13.69,13.85-13.9v-36.34l-1.58,7.03c-.53,2.34-6.31,3.71-9.84,4.01ZM252.47,376.02c.45-3.99,4.25-4.87,5.95-5.06v5.06h-5.95Z"/><path class="bc" d="M63.48,360.86c-13.46,4.35-14.06,13.81-14.08,14.24v11.59l25.69.23v-37.05l-1.58,6.93c-.53,2.34-6.33,3.71-10.03,4.05ZM59.08,376.02c.45-3.99,4.26-4.87,5.95-5.07v5.07h-5.95Z"/><path class="bp" d="M222.08,291.31l2.23-1.61-2.75.16c-6.46.32-9.55-8.54-9.58-8.63l-1.55-4.62-.15,124.69,1.43-1.83c2.98-3.81,7.6-6.56,7.64-6.59l.39-.23v-7.26h15.99l-3.51-1.53c-6.54-2.86-7.65-8.21-7.69-8.43l-.26-1.32-.88.72c-.53.04-2.19,0-3.66-.04v-78.84c-.24-2.74,2.3-4.6,2.32-4.62Z"/><path class="be" d="M56.11,354.17c2.78,0,5.03-2.25,5.03-5.02s-2.26-5.01-5.03-5.01-5.01,2.25-5.01,5.01,2.25,5.02,5.01,5.02Z"/><path class="ar" d="M62.92,349.15c0,2.77,2.25,5.02,5.02,5.02s5.02-2.25,5.02-5.02-2.25-5.01-5.02-5.01-5.02,2.25-5.02,5.01Z"/><path class="bb" d="M199.92,281.23c-.03.09-3.1,8.94-9.59,8.6l-2.78-.16,2.27,1.61s2.6,1.88,2.32,4.71v79.01l-30.44.02c-.25-.05-6.04-1.37-5.25-8.62.04-.23,1.11-5.62,6.58-6.41.15-.02,3.83-.43,6.28,3.32l1.25,1.91.22-2.27c0-.06.5-6.11-5.78-8.48.36-1.79.9-6.4-2.05-9.57l-1.95-2.1.58,2.8s.71,3.68-2.67,6.68c-1.51.39-10.4,3.06-13.09,13.22-.06.21-1.23,4.88,1.77,9.51h-13.09c-.6-1.28-2.48-4.49-6.98-6.4-.04-.01-3.56-1.54-4.05-4.44l-1.11-6.54-.48,6.62c-.01.14-.28,3.36-3.42,4.07-.26.11-6.11,2.56-8.13,7.24h-6.83v-22.22l-1.56,4.8c-.11.33-2.73,8.14-10.99,7.58l-3.07-.2,2.59,1.67c1.28.83,2.71,2.17,2.71,2.76v18.23c0,.19-.32,4.74-5.55,5.46-.23.06-5.63,1.15-8.97-5.48l-1.98-3.93.47,4.38c.01.11,1.31,11.08,11.72,11.68.12,0,12.03.73,14.38-12.34v-1.74h7.15c1.05,1.94,5.51,9.24,12.44,9,.3.06,7.24,1.38,12.78-9.81h56.54v6.29l.26.24s4.65,4.21,7.87,7.62l1.39,1.47-.19-124.4-1.55,4.62ZM118.59,380.86c0-2.37,1.91-4.29,4.25-4.29s4.25,1.92,4.25,4.29-1.9,4.24-4.25,4.24-4.25-1.9-4.25-4.24Z"/><path class="bk" d="M323.8,408.31c0-2.32-1.88-4.21-4.2-4.21s-4.2,1.89-4.2,4.21,1.89,4.16,4.2,4.16,4.2-1.87,4.2-4.16Z"/><path class="cb" d="M440.73,410.54c-1.74-14.48-15.43-14.65-15.57-14.65h-1.18l1.41,3.53.35.12c4.76,1.63,7.87,3.85,9.24,6.58,2.09,4.31.24,8.75-.27,9.8-1.65.67-2.95.7-3.86.07-1.72-1.18-1.96-4.54-1.9-5.73l.11-2.36-1.52,1.81c-2.07,2.46-2.81,4.78-2.21,6.87.74,2.56,3.29,4,4.65,4.6-1.33,2.9-1.58,5.62-.73,8.09,1.45,4.19,5.53,6.08,5.7,6.16l2.66,1.2-1.67-2.39c-4.6-6.57.2-12.3.4-12.52,3.95-4.37,4.38-10.76,4.39-11.17Z"/><path class="bd" d="M419.2,410.5c-2.63-15.35-15.51-14.61-15.64-14.61l-1.11.08,1.43,3.45.34.12c4.78,1.64,7.88,3.86,9.21,6.58,2.09,4.31.26,8.74-.24,9.8-1.65.67-2.95.7-3.88.07-1.73-1.18-1.97-4.54-1.92-5.73l.1-2.35-1.51,1.8c-2.07,2.46-2.81,4.77-2.2,6.87.74,2.56,3.31,4,4.67,4.6-1.33,2.9-1.56,5.62-.71,8.09,1.46,4.19,5.54,6.08,5.71,6.16l2.66,1.21-1.68-2.4c-4.61-6.57.18-12.29.37-12.52,3.94-4.36,4.39-10.76,4.4-11.21Z"/><path class="bv" d="M199.22,410.5c-2.62-15.34-15.49-14.61-15.62-14.61l-1.1.08,1.41,3.45.34.12c4.77,1.65,7.87,3.86,9.2,6.58,2.07,4.31.25,8.74-.25,9.8-1.65.68-2.95.7-3.87.07-1.73-1.18-1.97-4.54-1.92-5.73l.1-2.35-1.51,1.8c-2.07,2.46-2.81,4.77-2.21,6.87.74,2.56,3.31,4,4.67,4.6-1.32,2.9-1.56,5.62-.7,8.09,1.46,4.19,5.53,6.08,5.7,6.16l2.67,1.21-1.68-2.4c-4.61-6.57.18-12.29.37-12.52,3.94-4.36,4.4-10.75,4.41-11.21Z"/><path class="bi" d="M330.48,420.93c-1.89,4.84-4.39,7.95-7.45,9.25-4.91,2.15-10.01.22-11.17-.28-.7-1.52-.78-2.74-.21-3.62,1.23-1.91,5.26-2.2,6.71-2.13l2.58.09-2.07-1.54c-2.84-2.11-5.47-2.82-7.82-2.09-2.74.83-4.29,3.36-4.92,4.66-10.95-4.62-15.95,4.78-16,4.88l-1.34,2.59,2.47-1.55c7.52-4.7,14.04.2,14.31.41,4.89,3.87,12.03,4.34,12.37,4.36h.11c14.37,0,16.32-15.3,16.34-15.46l.15-1.26-3.92,1.34-.14.35Z"/><path class="bz" d="M72.95,410.5c-2.61-15.34-15.47-14.61-15.61-14.61l-1.1.08,1.38,3.45.35.12c4.78,1.65,7.88,3.86,9.2,6.58,2.08,4.31.25,8.74-.25,9.8-1.65.67-2.94.7-3.86.07-1.72-1.18-1.96-4.54-1.9-5.73l.11-2.35-1.52,1.8c-2.08,2.47-2.83,4.78-2.22,6.87.74,2.56,3.3,4,4.66,4.6-1.33,2.9-1.56,5.62-.71,8.09,1.45,4.19,5.53,6.07,5.7,6.15l2.67,1.21-1.68-2.4c-4.61-6.57.18-12.29.37-12.52,3.96-4.36,4.41-10.76,4.42-11.21Z"/><path class="cg" d="M54.05,309.87c2.4,15.88,13.34,16.63,15.34,16.63.19,0,.3,0,.31,0l1.04-.08-1.32-3.75-.34-.13c-4.71-1.83-7.9-4.45-9.23-7.58-2.16-5.02-.23-10.21.26-11.38,1.51-.71,2.72-.79,3.6-.23,1.93,1.24,2.21,5.37,2.15,6.86l-.1,2.62,1.55-2.11c2.12-2.9,2.83-5.59,2.1-8-.84-2.77-3.35-4.33-4.64-4.96,4.59-11.19-4.81-16.18-4.9-16.23l-2.56-1.32,1.51,2.45c4.7,7.61-.18,14.28-.38,14.54-3.93,4.95-4.38,12.22-4.39,12.69Z"/><path class="aw" d="M95.53,344.66c.2,0,.32,0,.33,0l1.02-.08-1.26-3.74-.35-.14c-4.76-1.86-7.88-4.4-9.26-7.56-2.14-5.02-.21-10.21.28-11.38,1.52-.72,2.73-.8,3.61-.24,1.92,1.23,2.19,5.36,2.13,6.85l-.11,2.63,1.55-2.13c2.12-2.91,2.82-5.61,2.08-8.01-.85-2.75-3.35-4.3-4.64-4.93,4.62-11.17-4.78-16.2-4.88-16.25l-2.55-1.32,1.5,2.45c4.68,7.64-.2,14.29-.41,14.55-3.88,4.96-4.35,12.21-4.36,12.68,2.37,15.86,13.24,16.62,15.29,16.62Z"/><path class="cc" d="M113.16,308.17c2.39,15.88,13.29,16.63,15.32,16.63.2,0,.31,0,.33,0l1.18-.09-1.48-3.02-.29-.11c-5.97-2.37-8.36-6.22-9.26-8.31-2.15-5.01-.21-10.21.28-11.38,1.51-.71,2.72-.79,3.6-.23,1.92,1.23,2.19,5.36,2.13,6.85l-.11,2.64,1.55-2.14c2.12-2.92,2.83-5.62,2.09-8.03-.84-2.75-3.33-4.3-4.61-4.93,4.59-11.15-4.8-16.18-4.9-16.23l-2.56-1.33,1.51,2.46c4.7,7.63-.2,14.28-.41,14.55-3.9,4.96-4.37,12.2-4.38,12.67Z"/><path class="bt" d="M151.09,278.5l1.5,2.45c4.66,7.63-.22,14.29-.42,14.55-3.91,4.97-4.36,12.2-4.37,12.67,2.39,15.88,13.29,16.63,15.32,16.63.2,0,.31,0,.33,0l1.03-.08-1.3-3.76-.35-.13c-4.76-1.84-7.87-4.38-9.24-7.57-2.15-5.01-.21-10.21.28-11.38,1.5-.71,2.71-.79,3.58-.24,1.93,1.23,2.2,5.37,2.15,6.86l-.1,2.62,1.55-2.12c2.13-2.92,2.83-5.62,2.09-8.02-.84-2.76-3.35-4.31-4.64-4.94,4.6-11.15-4.78-16.18-4.88-16.23l-2.55-1.32Z"/><path class="at" d="M243.63,308.17c2.41,15.88,13.3,16.63,15.32,16.63.2,0,.31,0,.33,0l1.03-.08-1.28-3.75-.35-.14c-4.76-1.84-7.86-4.39-9.23-7.57-2.14-5.01-.23-10.2.26-11.38,1.51-.72,2.72-.79,3.6-.23,1.93,1.23,2.2,5.37,2.14,6.85l-.1,2.62,1.55-2.12c2.13-2.92,2.84-5.62,2.1-8.02-.84-2.76-3.35-4.31-4.64-4.94,4.59-11.15-4.81-16.17-4.9-16.22l-2.57-1.33,1.52,2.46c4.7,7.63-.18,14.28-.37,14.55-3.93,4.96-4.4,12.2-4.41,12.67Z"/><path class="bu" d="M86.2,286.32c.57.36,1.81,1.35,2.06,2.38l.11.25c.2.3.64.64,1.23.64h.05c.89-.03,1.74-.8,2.64-2.38.42-.84,1.73-3.14,2.93-4.2.63.03,1.94-.06,2.89-.9.46-.41,1.01-1.17,1.01-2.47l-.09-.36c-.04-.08-.98-1.92-2.75-2.45-.97-.29-1.98-.14-2.99.45l-.35.2-.04.4s-.37,3.21-2.66,5.49c-.25.24-.56.5-.82.71-.06.04-.11.08-.16.12,0-.14-.01-.3-.01-.44-.03-1.09-.07-2.73-1.25-3.75-.84-.72-2.05-.96-3.69-.76l-.35.05-.2.29c-.06.09-1.54,2.23-.79,4.22.44,1.19,1.53,2.03,3.24,2.49Z"/><path class="bw" d="M131.54,414.61c.62-.91,3.62-5.54,2.11-7.76-.7-1.03-2.13-1.29-4.24-.8l-.58.14-.04.6c0,.14-.96,13.61-14.14,15.6-.02,0-2.21.41-3.73-.72-.86-.64-1.36-1.68-1.5-3.11-.04-.33-.28-3,2.28-3.75.32,1.15,1.06,3.05,2.52,3.49.93.29,1.89-.06,2.86-1.03l.15-.15.06-.21c.04-.16.97-3.84-.58-6.41-.68-1.13-1.72-1.87-3.27-2.22-.06,0-6.26.08-8.3,6.96-.03.06-2.8,6.26,4.17,11.13l.22.11c.29.09,6.57,1.96,12.36-.46-.25,1.73-.35,4.47.96,6.56.91,1.45,2.33,2.35,4.21,2.68.04.01.48.1,1.12.1,1.03,0,2.56-.23,3.75-1.37,1.47-1.41,1.96-3.77,1.44-6.99l-.05-.29-.23-.19c-.08-.07-.82-.66-1.78-.34-.94.32-1.6,1.36-2.02,3.16-.19.23-.82.81-2.09.68-.44-.19-1.4-1.71-.67-6.25.01-.04,1.44-3.68,5.02-9.14Z"/><path class="bh" d="M169.26,414.6c.62-.91,3.61-5.55,2.09-7.76-.7-1.03-2.13-1.3-4.23-.8l-.58.14-.04.6c-.03.55-.96,13.61-14.12,15.6-.02,0-2.23.41-3.75-.72-.85-.64-1.36-1.68-1.5-3.12,0-.02-.18-1.58.68-2.71.38-.49.91-.84,1.6-1.03.32,1.15,1.05,3.05,2.5,3.49.92.28,1.89-.06,2.85-1.03l.15-.15.05-.21c.04-.16.97-3.83-.57-6.41-.68-1.13-1.72-1.88-3.28-2.23-.06,0-6.26.08-8.33,6.96-.03.06-2.74,6.26,4.21,11.12l.22.11c.29.09,6.55,1.96,12.34-.45-.25,1.73-.36,4.46.95,6.55.91,1.46,2.34,2.36,4.23,2.69.04.01.48.1,1.12.1,1.03,0,2.56-.23,3.76-1.37,1.48-1.41,1.96-3.77,1.45-6.99l-.05-.3-.23-.19c-.08-.07-.83-.66-1.79-.33-.94.32-1.59,1.36-2,3.15-.2.23-.87.83-2.12.69-.43-.19-1.37-1.71-.62-6.26.01-.04,1.42-3.68,5-9.13Z"/><path class="bl" d="M236.05,426.68l-.23-.19c-.08-.07-.84-.65-1.79-.33-.94.32-1.6,1.36-2.02,3.16-.19.23-.81.83-2.08.68-.43-.19-1.39-1.71-.63-6.26.01-.04,1.4-3.67,4.98-9.13.62-.91,3.62-5.54,2.1-7.76-.7-1.03-2.13-1.29-4.24-.8l-.58.14-.03.6c0,.14-.93,13.61-14.12,15.6-.02,0-2.22.41-3.74-.72-.86-.64-1.36-1.68-1.51-3.12-.02-.13-.35-2.97,2.28-3.74.32,1.15,1.06,3.04,2.51,3.49.93.28,1.9-.06,2.87-1.03l.16-.15.06-.21c.04-.15.96-3.83-.58-6.4-.69-1.14-1.73-1.88-3.3-2.23-.06,0-6.25.08-8.33,6.96-.03.06-2.75,6.26,4.21,11.12l.22.11c.29.09,6.57,1.96,12.34-.45-.25,1.73-.35,4.47.96,6.57.91,1.45,2.33,2.35,4.2,2.67.05.01.48.1,1.12.1,1.03,0,2.57-.23,3.76-1.37,1.48-1.41,1.97-3.77,1.46-6.99l-.05-.3Z"/><path class="bm" d="M263.29,414.61c.62-.91,3.61-5.55,2.09-7.76-.7-1.02-2.13-1.29-4.23-.8l-.58.14-.03.6c0,.14-.93,13.61-14.12,15.6-.02,0-2.22.41-3.74-.72-.86-.64-1.37-1.68-1.51-3.11-.02-.13-.34-2.97,2.29-3.75.32,1.15,1.06,3.04,2.51,3.49.93.29,1.89-.06,2.86-1.03l.15-.15.05-.21c.04-.16.99-3.83-.55-6.4-.68-1.14-1.73-1.89-3.31-2.24-.06,0-6.25.08-8.33,6.96-.03.06-2.75,6.26,4.2,11.12l.22.11c.29.09,6.57,1.96,12.36-.46-.25,1.73-.35,4.47.96,6.57.91,1.45,2.33,2.35,4.2,2.67.04.01.48.1,1.12.1,1.03,0,2.57-.23,3.77-1.37,1.47-1.41,1.96-3.76,1.45-6.99l-.05-.3-.23-.19c-.08-.07-.82-.65-1.79-.33-.94.32-1.6,1.36-2.02,3.16-.19.23-.85.81-2.09.68-.44-.19-1.4-1.71-.66-6.25.01-.04,1.42-3.68,5.01-9.13Z"/><path class="br" d="M387.12,400.41c-11.8-1.11-19.34-5.23-19.41-5.28l-.38-.21-.38.2c-1.63.85-2.39,1.85-2.25,2.97.39,3.12,8.42,5.27,10.98,5.87,5.75.55,11.59,1.89,11.63,1.89,10.5,4.2,10.19,11.06,10.18,11.35-.19,2.84-.98,4.87-2.36,6.06-1.39,1.19-2.88,1.08-2.95,1.08h-.1s-.1,0-.1,0c-8.3,1.3-10.62-2.78-10.73-2.99-1.65-2.7-.34-4.43.02-4.83,3.03-1.19,4.52-.92,5.24-.49.76.47.85,1.25.85,1.28l.06.26c.84,1.95,1.77,2.91,2.82,2.92h.02c1.26,0,1.93-1.37,2-1.52l.06-.22c.35-2.41-.15-4.31-1.47-5.66-2.53-2.57-7.12-2.03-7.26-2.01-3.3.2-5.75,1.28-7.29,3.21-1.42,1.78-1.7,3.86-1.71,5.16-17.68-5.64-25.7.01-26.07.29-4.72,3.9-7.22,7.43-7.42,10.47-.13,1.94.75,2.94.77,2.95,2.09,3.05,4.58,4.82,7.39,5.25.47.07.93.11,1.37.11,3.47,0,6.05-1.97,6.17-2.06,1.73-1.32,2.54-2.79,2.41-4.39-.27-3.39-4.84-5.88-5.04-5.98l-.21-.11-.23.02c-1.4.11-2.04.79-2.32,1.34-.74,1.42.06,3.45.53,4.43-.61.6-1.21.87-1.77.81-1.1-.13-2.06-1.49-2.4-2.1-1.09-5.31,5.11-7.3,5.42-7.4,10.29-3.78,20.16.5,20.18.5,7.06,4.23,14.02,5.66,14.43,5.73,13.85.56,14.89-10.5,14.9-10.72-.86-14.78-15.36-18.14-15.6-18.19Z"/><path class="ce" d="M157.1,257.2h11.73V109.64l18.05-7.12-.53-1.51-17.52,5.42v-6.95l25.09-9.33-.5-1.52-24.58,7.18v-54.71l75.36-27.46.57,12.68h1.6s.6-13.34.6-13.34l75.66,27.94v54.96l-24.9-7.26-.5,1.52,25.4,9.44v6.92l-17.85-5.5-.53,1.51,18.38,7.25v147.43h.56v.57h66.27l-1.29-1.35s-2.95-3.09-4.64-4.81c-1.5-1.5-2.32-4.92-2.33-4.95l-.15-.62h-7.78v-26.11c.02-.19.65-4.77-3.08-9.35-2.06-2.6-8.33-3.32-9.12-3.4h-21.87v11.75h22.32v27.12h-27.17V32.54h-.59L247.51.68l-.15-.68-.85.31-.74-.28-.23.63-87.55,31.88-.9.1v.26l-.4.16.35.77.05,223.39Z"/><path class="ce" d="M154.45,246.02h-23.71v-27.11h22.32v-11.75h-21.91c-.71.08-6.97.8-9.09,3.4-3.7,4.6-3.05,9.16-3.03,9.23v26.23h-7.82l-.14.62c-.22.96-1.06,3.73-2.31,4.98-1.7,1.7-4.66,4.79-4.66,4.79l-1.3,1.36h51.67v-11.75Z"/><path class="ce" d="M270.02,211.78c0-3.07-2.5-5.58-5.57-5.58s-5.59,2.5-5.59,5.58,2.51,5.58,5.59,5.58,5.57-2.5,5.57-5.58Z"/><path class="ce" d="M305.63,110.57h-.62c-2.96-5.42-16.86-27.82-50.33-40.85-1.73-2.66-3.65-4.1-5.2-4.89.54-.78.84-1.69.84-2.63,0-1.54-.79-2.95-2.06-3.79.83-1.04,1.34-2.57,1.34-4.22,0-.19-1.95-19.39-3.89-19.39-.79,0-1.03,0-2.52,8.98-.69,4.15-1.38,8.98-1.38,10.41,0,1.65.5,3.18,1.34,4.22-1.26.84-2.05,2.25-2.05,3.79,0,.98.31,1.93.87,2.7-2.62,1.36-4.34,3.6-5.24,5.03-36.89,14.47-50.17,40.54-50.3,40.8l-.08,92.41h11.72v-91.76c22.14-25.89,42.33-30.92,47.85-31.84,5.82.95,26.46,6.11,47.99,32.66v133.83h-23.6v-22.09c-.23-1.9-1.74-5.49-5.86-5.49s-5.67,3.59-5.9,5.59v22h-21.26v-26.11c.02-.19.64-4.76-3.05-9.36-2.11-2.59-8.37-3.31-9.16-3.39h-38.59v11.75h39.06v27.11h-37.52v11.72h117.6V110.57Z"/><path class="ce" d="M440.6,283.42c-.03.08-3.4,7.58-9.9,7.27l-4.5-.27,4.14,1.8c.1.04,2.5,1.13,2.5,5.18v77.61h-12.9v-79.12c-.24-2.74,2.3-4.58,2.32-4.6l2.26-1.61-2.77.16c-6.42.31-9.56-8.54-9.59-8.63l-1.56-4.64v98.65l-15.79.2c-8.57-1.78-14.77-5.6-18.43-11.34-5.67-8.9-3.25-19.52-3.23-19.62,3.33-13.6,11.92-24.64,12.01-24.76,9.49-12.66,7.52-25.43,7.43-26.01-3.45-15.64-15.82-16.41-16.03-16.42-16.6,1.08-27.34.01-27.45,0l-2.64-.27,2.05,1.69c2.84,2.34,9.27,5.3,11.66,6.36-4.51,6.77-3.01,14.26-2.94,14.59l.63,2.99.92-2.91c3.17-10.01,8.4-11.28,8.64-11.36,3.84-1.85,7.03-2.1,9.47-.74,4.31,2.4,5.08,9.07,5.1,9.21,2.21,10.76-6.49,21.77-6.57,21.87-11.28,13.55-13.11,30.1-13.13,30.37.42,14.04,7.14,22.99,10.37,26.48h-41.09c-8.97-1.65-15.45-5.45-19.26-11.29-5.82-8.93-3.37-19.71-3.34-19.81,3.3-13.6,11.89-24.64,11.97-24.74,10.41-13.15,7.57-25.52,7.45-26.02-3.46-15.64-15.79-16.41-16.01-16.42-16.63,1.08-27.34.01-27.45,0l-2.61-.27,2.02,1.68c2.82,2.34,9.25,5.3,11.65,6.36-4.51,6.77-3,14.26-2.93,14.59l.63,2.98.92-2.91c3.16-10.01,8.39-11.28,8.62-11.36,3.85-1.85,7.05-2.1,9.5-.74,4.32,2.4,5.09,9.07,5.11,9.2,2.15,10.76-6.5,21.78-6.57,21.88-11.3,13.55-13.14,30.1-13.16,30.38.45,14.43,7.54,23.49,10.68,26.8h-6.52c-7.85.58-10.22,10.85-10.34,11.46,0,13.09,10.29,13.25,10.4,13.25h11.24c4.61,0,7.5-1.15,7.75-1.26,8.73-5.48,17.59-6.64,17.68-6.65l-.1-1.6h-34.3c-1.06-1.01-1.54-1.97-1.45-2.86.13-1.17,1.23-2.02,1.65-2.3h130.24c.85,6.6,5.51,11.88,5.72,12.11l1.4,1.56v-119.77l-1.54,3.58Z"/><path class="ce" d="M257.05,360.82l-.18.04c-13.48,4.35-14.04,13.81-14.06,14.24v10.76h15.35c-.46,6.24-4.4,7.03-4.73,7.1-6.89,2.71-11.52-4.06-11.71-4.34l-2.88-4.3,1.45,4.97c3.08,10.59,14.15,10.73,14.33,10.73,12.4-.45,13.84-13.69,13.85-13.9v-36.34l-1.58,7.03c-.53,2.34-6.31,3.71-9.84,4.01ZM252.47,376.02c.45-3.99,4.25-4.87,5.95-5.06v5.06h-5.95Z"/><path class="ce" d="M63.48,360.86c-13.46,4.35-14.06,13.81-14.08,14.24v11.59l25.69.23v-37.05l-1.58,6.93c-.53,2.34-6.33,3.71-10.03,4.05ZM59.08,376.02c.45-3.99,4.26-4.87,5.95-5.07v5.07h-5.95Z"/><path class="ce" d="M222.08,291.31l2.23-1.61-2.75.16c-6.46.32-9.55-8.54-9.58-8.63l-1.55-4.62-.15,124.69,1.43-1.83c2.98-3.81,7.6-6.56,7.64-6.59l.39-.23v-7.26h15.99l-3.51-1.53c-6.54-2.86-7.65-8.21-7.69-8.43l-.26-1.32-.88.72c-.53.04-2.19,0-3.66-.04v-78.84c-.24-2.74,2.3-4.6,2.32-4.62Z"/><path class="ce" d="M56.11,354.17c2.78,0,5.03-2.25,5.03-5.02s-2.26-5.01-5.03-5.01-5.01,2.25-5.01,5.01,2.25,5.02,5.01,5.02Z"/><path class="ce" d="M62.92,349.15c0,2.77,2.25,5.02,5.02,5.02s5.02-2.25,5.02-5.02-2.25-5.01-5.02-5.01-5.02,2.25-5.02,5.01Z"/><path class="ce" d="M199.92,281.23c-.03.09-3.1,8.94-9.59,8.6l-2.78-.16,2.27,1.61s2.6,1.88,2.32,4.71v79.01l-30.44.02c-.25-.05-6.04-1.37-5.25-8.62.04-.23,1.11-5.62,6.58-6.41.15-.02,3.83-.43,6.28,3.32l1.25,1.91.22-2.27c0-.06.5-6.11-5.78-8.48.36-1.79.9-6.4-2.05-9.57l-1.95-2.1.58,2.8s.71,3.68-2.67,6.68c-1.51.39-10.4,3.06-13.09,13.22-.06.21-1.23,4.88,1.77,9.51h-13.09c-.6-1.28-2.48-4.49-6.98-6.4-.04-.01-3.56-1.54-4.05-4.44l-1.11-6.54-.48,6.62c-.01.14-.28,3.36-3.42,4.07-.26.11-6.11,2.56-8.13,7.24h-6.83v-22.22l-1.56,4.8c-.11.33-2.73,8.14-10.99,7.58l-3.07-.2,2.59,1.67c1.28.83,2.71,2.17,2.71,2.76v18.23c0,.19-.32,4.74-5.55,5.46-.23.06-5.63,1.15-8.97-5.48l-1.98-3.93.47,4.38c.01.11,1.31,11.08,11.72,11.68.12,0,12.03.73,14.38-12.34v-1.74h7.15c1.05,1.94,5.51,9.24,12.44,9,.3.06,7.24,1.38,12.78-9.81h56.54v6.29l.26.24s4.65,4.21,7.87,7.62l1.39,1.47-.19-124.4-1.55,4.62ZM118.59,380.86c0-2.37,1.91-4.29,4.25-4.29s4.25,1.92,4.25,4.29-1.9,4.24-4.25,4.24-4.25-1.9-4.25-4.24Z"/><path class="ce" d="M323.8,408.31c0-2.32-1.88-4.21-4.2-4.21s-4.2,1.89-4.2,4.21,1.89,4.16,4.2,4.16,4.2-1.87,4.2-4.16Z"/><path class="ce" d="M440.73,410.54c-1.74-14.48-15.43-14.65-15.57-14.65h-1.18l1.41,3.53.35.12c4.76,1.63,7.87,3.85,9.24,6.58,2.09,4.31.24,8.75-.27,9.8-1.65.67-2.95.7-3.86.07-1.72-1.18-1.96-4.54-1.9-5.73l.11-2.36-1.52,1.81c-2.07,2.46-2.81,4.78-2.21,6.87.74,2.56,3.29,4,4.65,4.6-1.33,2.9-1.58,5.62-.73,8.09,1.45,4.19,5.53,6.08,5.7,6.16l2.66,1.2-1.67-2.39c-4.6-6.57.2-12.3.4-12.52,3.95-4.37,4.38-10.76,4.39-11.17Z"/><path class="ce" d="M419.2,410.5c-2.63-15.35-15.51-14.61-15.64-14.61l-1.11.08,1.43,3.45.34.12c4.78,1.64,7.88,3.86,9.21,6.58,2.09,4.31.26,8.74-.24,9.8-1.65.67-2.95.7-3.88.07-1.73-1.18-1.97-4.54-1.92-5.73l.1-2.35-1.51,1.8c-2.07,2.46-2.81,4.77-2.2,6.87.74,2.56,3.31,4,4.67,4.6-1.33,2.9-1.56,5.62-.71,8.09,1.46,4.19,5.54,6.08,5.71,6.16l2.66,1.21-1.68-2.4c-4.61-6.57.18-12.29.37-12.52,3.94-4.36,4.39-10.76,4.4-11.21Z"/><path class="ce" d="M199.22,410.5c-2.62-15.34-15.49-14.61-15.62-14.61l-1.1.08,1.41,3.45.34.12c4.77,1.65,7.87,3.86,9.2,6.58,2.07,4.31.25,8.74-.25,9.8-1.65.68-2.95.7-3.87.07-1.73-1.18-1.97-4.54-1.92-5.73l.1-2.35-1.51,1.8c-2.07,2.46-2.81,4.77-2.21,6.87.74,2.56,3.31,4,4.67,4.6-1.32,2.9-1.56,5.62-.7,8.09,1.46,4.19,5.53,6.08,5.7,6.16l2.67,1.21-1.68-2.4c-4.61-6.57.18-12.29.37-12.52,3.94-4.36,4.4-10.75,4.41-11.21Z"/><path class="ce" d="M330.48,420.93c-1.89,4.84-4.39,7.95-7.45,9.25-4.91,2.15-10.01.22-11.17-.28-.7-1.52-.78-2.74-.21-3.62,1.23-1.91,5.26-2.2,6.71-2.13l2.58.09-2.07-1.54c-2.84-2.11-5.47-2.82-7.82-2.09-2.74.83-4.29,3.36-4.92,4.66-10.95-4.62-15.95,4.78-16,4.88l-1.34,2.59,2.47-1.55c7.52-4.7,14.04.2,14.31.41,4.89,3.87,12.03,4.34,12.37,4.36h.11c14.37,0,16.32-15.3,16.34-15.46l.15-1.26-3.92,1.34-.14.35Z"/><path class="ce" d="M72.95,410.5c-2.61-15.34-15.47-14.61-15.61-14.61l-1.1.08,1.38,3.45.35.12c4.78,1.65,7.88,3.86,9.2,6.58,2.08,4.31.25,8.74-.25,9.8-1.65.67-2.94.7-3.86.07-1.72-1.18-1.96-4.54-1.9-5.73l.11-2.35-1.52,1.8c-2.08,2.47-2.83,4.78-2.22,6.87.74,2.56,3.3,4,4.66,4.6-1.33,2.9-1.56,5.62-.71,8.09,1.45,4.19,5.53,6.07,5.7,6.15l2.67,1.21-1.68-2.4c-4.61-6.57.18-12.29.37-12.52,3.96-4.36,4.41-10.76,4.42-11.21Z"/><path class="ce" d="M54.05,309.87c2.4,15.88,13.34,16.63,15.34,16.63.19,0,.3,0,.31,0l1.04-.08-1.32-3.75-.34-.13c-4.71-1.83-7.9-4.45-9.23-7.58-2.16-5.02-.23-10.21.26-11.38,1.51-.71,2.72-.79,3.6-.23,1.93,1.24,2.21,5.37,2.15,6.86l-.1,2.62,1.55-2.11c2.12-2.9,2.83-5.59,2.1-8-.84-2.77-3.35-4.33-4.64-4.96,4.59-11.19-4.81-16.18-4.9-16.23l-2.56-1.32,1.51,2.45c4.7,7.61-.18,14.28-.38,14.54-3.93,4.95-4.38,12.22-4.39,12.69Z"/><path class="ce" d="M95.53,344.66c.2,0,.32,0,.33,0l1.02-.08-1.26-3.74-.35-.14c-4.76-1.86-7.88-4.4-9.26-7.56-2.14-5.02-.21-10.21.28-11.38,1.52-.72,2.73-.8,3.61-.24,1.92,1.23,2.19,5.36,2.13,6.85l-.11,2.63,1.55-2.13c2.12-2.91,2.82-5.61,2.08-8.01-.85-2.75-3.35-4.3-4.64-4.93,4.62-11.17-4.78-16.2-4.88-16.25l-2.55-1.32,1.5,2.45c4.68,7.64-.2,14.29-.41,14.55-3.88,4.96-4.35,12.21-4.36,12.68,2.37,15.86,13.24,16.62,15.29,16.62Z"/><path class="ce" d="M113.16,308.17c2.39,15.88,13.29,16.63,15.32,16.63.2,0,.31,0,.33,0l1.18-.09-1.48-3.02-.29-.11c-5.97-2.37-8.36-6.22-9.26-8.31-2.15-5.01-.21-10.21.28-11.38,1.51-.71,2.72-.79,3.6-.23,1.92,1.23,2.19,5.36,2.13,6.85l-.11,2.64,1.55-2.14c2.12-2.92,2.83-5.62,2.09-8.03-.84-2.75-3.33-4.3-4.61-4.93,4.59-11.15-4.8-16.18-4.9-16.23l-2.56-1.33,1.51,2.46c4.7,7.63-.2,14.28-.41,14.55-3.9,4.96-4.37,12.2-4.38,12.67Z"/><path class="ce" d="M151.09,278.5l1.5,2.45c4.66,7.63-.22,14.29-.42,14.55-3.91,4.97-4.36,12.2-4.37,12.67,2.39,15.88,13.29,16.63,15.32,16.63.2,0,.31,0,.33,0l1.03-.08-1.3-3.76-.35-.13c-4.76-1.84-7.87-4.38-9.24-7.57-2.15-5.01-.21-10.21.28-11.38,1.5-.71,2.71-.79,3.58-.24,1.93,1.23,2.2,5.37,2.15,6.86l-.1,2.62,1.55-2.12c2.13-2.92,2.83-5.62,2.09-8.02-.84-2.76-3.35-4.31-4.64-4.94,4.6-11.15-4.78-16.18-4.88-16.23l-2.55-1.32Z"/><path class="ce" d="M243.63,308.17c2.41,15.88,13.3,16.63,15.32,16.63.2,0,.31,0,.33,0l1.03-.08-1.28-3.75-.35-.14c-4.76-1.84-7.86-4.39-9.23-7.57-2.14-5.01-.23-10.2.26-11.38,1.51-.72,2.72-.79,3.6-.23,1.93,1.23,2.2,5.37,2.14,6.85l-.1,2.62,1.55-2.12c2.13-2.92,2.84-5.62,2.1-8.02-.84-2.76-3.35-4.31-4.64-4.94,4.59-11.15-4.81-16.17-4.9-16.22l-2.57-1.33,1.52,2.46c4.7,7.63-.18,14.28-.37,14.55-3.93,4.96-4.4,12.2-4.41,12.67Z"/><path class="ce" d="M86.2,286.32c.57.36,1.81,1.35,2.06,2.38l.11.25c.2.3.64.64,1.23.64h.05c.89-.03,1.74-.8,2.64-2.38.42-.84,1.73-3.14,2.93-4.2.63.03,1.94-.06,2.89-.9.46-.41,1.01-1.17,1.01-2.47l-.09-.36c-.04-.08-.98-1.92-2.75-2.45-.97-.29-1.98-.14-2.99.45l-.35.2-.04.4s-.37,3.21-2.66,5.49c-.25.24-.56.5-.82.71-.06.04-.11.08-.16.12,0-.14-.01-.3-.01-.44-.03-1.09-.07-2.73-1.25-3.75-.84-.72-2.05-.96-3.69-.76l-.35.05-.2.29c-.06.09-1.54,2.23-.79,4.22.44,1.19,1.53,2.03,3.24,2.49Z"/><path class="ce" d="M131.54,414.61c.62-.91,3.62-5.54,2.11-7.76-.7-1.03-2.13-1.29-4.24-.8l-.58.14-.04.6c0,.14-.96,13.61-14.14,15.6-.02,0-2.21.41-3.73-.72-.86-.64-1.36-1.68-1.5-3.11-.04-.33-.28-3,2.28-3.75.32,1.15,1.06,3.05,2.52,3.49.93.29,1.89-.06,2.86-1.03l.15-.15.06-.21c.04-.16.97-3.84-.58-6.41-.68-1.13-1.72-1.87-3.27-2.22-.06,0-6.26.08-8.3,6.96-.03.06-2.8,6.26,4.17,11.13l.22.11c.29.09,6.57,1.96,12.36-.46-.25,1.73-.35,4.47.96,6.56.91,1.45,2.33,2.35,4.21,2.68.04.01.48.1,1.12.1,1.03,0,2.56-.23,3.75-1.37,1.47-1.41,1.96-3.77,1.44-6.99l-.05-.29-.23-.19c-.08-.07-.82-.66-1.78-.34-.94.32-1.6,1.36-2.02,3.16-.19.23-.82.81-2.09.68-.44-.19-1.4-1.71-.67-6.25.01-.04,1.44-3.68,5.02-9.14Z"/><path class="ce" d="M169.26,414.6c.62-.91,3.61-5.55,2.09-7.76-.7-1.03-2.13-1.3-4.23-.8l-.58.14-.04.6c-.03.55-.96,13.61-14.12,15.6-.02,0-2.23.41-3.75-.72-.85-.64-1.36-1.68-1.5-3.12,0-.02-.18-1.58.68-2.71.38-.49.91-.84,1.6-1.03.32,1.15,1.05,3.05,2.5,3.49.92.28,1.89-.06,2.85-1.03l.15-.15.05-.21c.04-.16.97-3.83-.57-6.41-.68-1.13-1.72-1.88-3.28-2.23-.06,0-6.26.08-8.33,6.96-.03.06-2.74,6.26,4.21,11.12l.22.11c.29.09,6.55,1.96,12.34-.45-.25,1.73-.36,4.46.95,6.55.91,1.46,2.34,2.36,4.23,2.69.04.01.48.1,1.12.1,1.03,0,2.56-.23,3.76-1.37,1.48-1.41,1.96-3.77,1.45-6.99l-.05-.3-.23-.19c-.08-.07-.83-.66-1.79-.33-.94.32-1.59,1.36-2,3.15-.2.23-.87.83-2.12.69-.43-.19-1.37-1.71-.62-6.26.01-.04,1.42-3.68,5-9.13Z"/><path class="ce" d="M236.05,426.68l-.23-.19c-.08-.07-.84-.65-1.79-.33-.94.32-1.6,1.36-2.02,3.16-.19.23-.81.83-2.08.68-.43-.19-1.39-1.71-.63-6.26.01-.04,1.4-3.67,4.98-9.13.62-.91,3.62-5.54,2.1-7.76-.7-1.03-2.13-1.29-4.24-.8l-.58.14-.03.6c0,.14-.93,13.61-14.12,15.6-.02,0-2.22.41-3.74-.72-.86-.64-1.36-1.68-1.51-3.12-.02-.13-.35-2.97,2.28-3.74.32,1.15,1.06,3.04,2.51,3.49.93.28,1.9-.06,2.87-1.03l.16-.15.06-.21c.04-.15.96-3.83-.58-6.4-.69-1.14-1.73-1.88-3.3-2.23-.06,0-6.25.08-8.33,6.96-.03.06-2.75,6.26,4.21,11.12l.22.11c.29.09,6.57,1.96,12.34-.45-.25,1.73-.35,4.47.96,6.57.91,1.45,2.33,2.35,4.2,2.67.05.01.48.1,1.12.1,1.03,0,2.57-.23,3.76-1.37,1.48-1.41,1.97-3.77,1.46-6.99l-.05-.3Z"/><path class="ce" d="M263.29,414.61c.62-.91,3.61-5.55,2.09-7.76-.7-1.02-2.13-1.29-4.23-.8l-.58.14-.03.6c0,.14-.93,13.61-14.12,15.6-.02,0-2.22.41-3.74-.72-.86-.64-1.37-1.68-1.51-3.11-.02-.13-.34-2.97,2.29-3.75.32,1.15,1.06,3.04,2.51,3.49.93.29,1.89-.06,2.86-1.03l.15-.15.05-.21c.04-.16.99-3.83-.55-6.4-.68-1.14-1.73-1.89-3.31-2.24-.06,0-6.25.08-8.33,6.96-.03.06-2.75,6.26,4.2,11.12l.22.11c.29.09,6.57,1.96,12.36-.46-.25,1.73-.35,4.47.96,6.57.91,1.45,2.33,2.35,4.2,2.67.04.01.48.1,1.12.1,1.03,0,2.57-.23,3.77-1.37,1.47-1.41,1.96-3.76,1.45-6.99l-.05-.3-.23-.19c-.08-.07-.82-.65-1.79-.33-.94.32-1.6,1.36-2.02,3.16-.19.23-.85.81-2.09.68-.44-.19-1.4-1.71-.66-6.25.01-.04,1.42-3.68,5.01-9.13Z"/><path class="ce" d="M387.12,400.41c-11.8-1.11-19.34-5.23-19.41-5.28l-.38-.21-.38.2c-1.63.85-2.39,1.85-2.25,2.97.39,3.12,8.42,5.27,10.98,5.87,5.75.55,11.59,1.89,11.63,1.89,10.5,4.2,10.19,11.06,10.18,11.35-.19,2.84-.98,4.87-2.36,6.06-1.39,1.19-2.88,1.08-2.95,1.08h-.1s-.1,0-.1,0c-8.3,1.3-10.62-2.78-10.73-2.99-1.65-2.7-.34-4.43.02-4.83,3.03-1.19,4.52-.92,5.24-.49.76.47.85,1.25.85,1.28l.06.26c.84,1.95,1.77,2.91,2.82,2.92h.02c1.26,0,1.93-1.37,2-1.52l.06-.22c.35-2.41-.15-4.31-1.47-5.66-2.53-2.57-7.12-2.03-7.26-2.01-3.3.2-5.75,1.28-7.29,3.21-1.42,1.78-1.7,3.86-1.71,5.16-17.68-5.64-25.7.01-26.07.29-4.72,3.9-7.22,7.43-7.42,10.47-.13,1.94.75,2.94.77,2.95,2.09,3.05,4.58,4.82,7.39,5.25.47.07.93.11,1.37.11,3.47,0,6.05-1.97,6.17-2.06,1.73-1.32,2.54-2.79,2.41-4.39-.27-3.39-4.84-5.88-5.04-5.98l-.21-.11-.23.02c-1.4.11-2.04.79-2.32,1.34-.74,1.42.06,3.45.53,4.43-.61.6-1.21.87-1.77.81-1.1-.13-2.06-1.49-2.4-2.1-1.09-5.31,5.11-7.3,5.42-7.4,10.29-3.78,20.16.5,20.18.5,7.06,4.23,14.02,5.66,14.43,5.73,13.85.56,14.89-10.5,14.9-10.72-.86-14.78-15.36-18.14-15.6-18.19Z"/><path d="M29.47,481.57c-.28-.62-.67-1.16-1.15-1.62-.48-.47-1.05-.83-1.69-1.08-.64-.25-1.31-.38-2-.38h-9.68c-2.05,0-4.01.38-5.83,1.12-1.8.74-3.39,1.77-4.74,3.06-1.35,1.29-2.43,2.82-3.21,4.55-.78,1.74-1.17,3.62-1.17,5.58v10.99c0,1.11.39,2.04,1.14,2.7.63.56,1.42.99,2.34,1.29.86.28,1.79.49,2.78.63.94.13,1.81.27,2.63.4v-.08s0,.09,0,.09c1,.12,2,.21,3,.28,1,.07,2.02.1,3.06.1,2,0,4-.12,5.94-.36,1.95-.24,3.86-.59,5.66-1.05l.21-.07c.86-.21,1.59-.65,2.18-1.32.66-.75.99-1.62.99-2.61l-.03-20.16c0-.73-.14-1.42-.43-2.05ZM21.44,486.67v13.83c-.93.15-1.87.26-2.8.35-1.19.1-2.43.16-3.69.16h-.35c-.56,0-1.08,0-1.58-.02-.47,0-.97-.03-1.5-.08-.53-.04-1.1-.11-1.7-.21-.4-.06-.84-.14-1.33-.24l-.03-7.66c0-.82.16-1.58.49-2.32.33-.74.79-1.4,1.38-1.96.6-.57,1.3-1.03,2.1-1.37.78-.34,1.6-.5,2.51-.5l6.5.03Z"/><path d="M21.31,475.31c.63,0,1.23-.11,1.78-.33.55-.22,1.04-.53,1.44-.92.42-.39.75-.85.99-1.39.24-.53.36-1.11.36-1.73s-.12-1.2-.35-1.74c-.24-.54-.57-1.01-.98-1.4-.41-.4-.9-.71-1.45-.93-.54-.21-1.14-.33-1.78-.33-1.25,0-2.32.42-3.19,1.25-.89.84-1.34,1.9-1.34,3.14s.47,2.31,1.34,3.13c.87.82,1.94,1.23,3.19,1.23Z"/><path d="M11.56,475.31c.63,0,1.23-.11,1.77-.33.55-.22,1.04-.53,1.45-.92.42-.39.75-.85.99-1.38.24-.53.36-1.11.36-1.73s-.12-1.2-.35-1.74c-.23-.54-.57-1.01-.98-1.4-.42-.4-.9-.71-1.45-.93-.54-.21-1.14-.33-1.77-.33-1.25,0-2.32.42-3.18,1.26-.87.84-1.31,1.9-1.31,3.13s.46,2.3,1.32,3.12c.86.82,1.93,1.24,3.17,1.24Z"/><path d="M147.91,466.26h-8.46v34.34h-14.51l3.77-5.56c1.44-2.1,2.16-4.18,2.16-6.18,0-1.53-.34-2.96-1-4.26-.66-1.27-1.55-2.38-2.66-3.28-1.1-.9-2.39-1.6-3.82-2.09-1.44-.5-2.98-.75-4.57-.75h-8.05c-1.79,0-3.44.28-4.9.84-1.46.56-2.73,1.32-3.77,2.25-1.06.94-1.89,2.04-2.47,3.28-.58,1.24-.88,2.54-.88,3.86,0,1.03.17,2.07.51,3.12.34,1.04.88,2.11,1.62,3.19l3.8,5.56h-12.84v-17.92c0-.55-.12-1.08-.35-1.59-.22-.48-.52-.9-.91-1.27-.38-.36-.83-.64-1.34-.85-.51-.21-1.06-.31-1.59-.31h0c-1.84-.05-3.69-.08-5.54-.1l-5.5-.07c-2.07-.06-4.05.32-5.87,1.16-1.79.82-3.37,1.92-4.69,3.26-1.32,1.34-2.37,2.86-3.14,4.54-.78,1.7-1.17,3.41-1.17,5.08v8.07h-8.87s0-.06,0-.1l.07-2.66c0-.44.02-.85.02-1.22l-.02-1.33c-.01-.66-.04-1.41-.07-2.27-.03-.85-.06-1.75-.09-2.7-.02-.97-.05-1.87-.09-2.71-.04-.82-.06-1.53-.07-2.14-.01-.6-.02-.99-.02-1.17v-1.07h-8.46v1.07c0,.75.01,1.54.04,2.35.02.81.06,1.65.1,2.51.05,1.13.08,2.3.11,3.51.02,1.21.03,2.43.03,3.66,0,1.71-.05,3.44-.14,5.15-.09,1.69-.3,3.34-.62,4.9-.31,1.53-.76,3.01-1.33,4.39-.55,1.31-1.29,2.47-2.21,3.44-.91.97-2.05,1.75-3.38,2.34-1.35.6-3.01.94-4.93,1.02l-1.02.05v8.19l1.09-.03c3.07-.07,5.78-.59,8.04-1.54,2.27-.96,4.24-2.27,5.85-3.9,1.6-1.61,2.91-3.51,3.9-5.64.86-1.85,1.55-3.83,2.07-5.92h91.95c1.14,0,2.14-.39,2.97-1.16.83-.78,1.27-1.79,1.27-2.93,0-.15-.01-.29-.03-.42v-38.02ZM122.39,488.73c0,.54-.23,1.15-.69,1.81l-6.89,10.06h0l-6.89-10.06c-.44-.64-.66-1.25-.66-1.81,0-.23.06-.43.21-.66.16-.26.39-.48.69-.68.33-.22.72-.4,1.19-.54.44-.13.92-.2,1.43-.2h8.05c.46,0,.93.06,1.4.17.43.1.83.26,1.17.47.31.19.57.43.77.71.15.2.22.44.22.73ZM76.45,486.64h.25c.11,0,.47.01,1.1.03h1.2c.51,0,1.06,0,1.64.02l1.86.03c.29,0,.59,0,.88.01v13.87h-13.13v-8.11c0-.71.17-1.39.51-2.08.35-.71.83-1.34,1.42-1.9.59-.55,1.28-1.01,2.04-1.37.74-.34,1.47-.5,2.24-.5Z"/><rect x="155.14" y="466.26" width="8.42" height="42.46"/><path d="M200.12,483.62c0-.7-.14-1.39-.43-2.03-.28-.63-.66-1.18-1.14-1.64-.47-.44-1.03-.8-1.67-1.07-.65-.26-1.34-.4-2.07-.4h-9.65c-2.05,0-4.01.38-5.83,1.12-1.8.74-3.39,1.77-4.74,3.05-1.36,1.28-2.44,2.82-3.21,4.55-.78,1.74-1.17,3.62-1.17,5.58v10.99c0,1.32.61,2.43,1.77,3.22.98.67,2.23,1.18,3.7,1.52,1.43.33,3,.54,4.67.61,1.7.08,3.34.09,4.86.04s3.01-.17,4.27-.33c.41-.05.78-.1,1.12-.16-.43,1.2-.91,2.32-1.45,3.35-.55,1.07-1.27,2.02-2.13,2.83-.85.8-1.9,1.45-3.12,1.92-1.23.48-2.77.75-4.58.82l-1.03.04v8.21l1.13-.07c3-.18,5.63-.72,7.84-1.6,2.23-.89,4.14-2.06,5.68-3.48,1.55-1.43,2.82-3.1,3.78-4.97.94-1.83,1.68-3.82,2.21-5.92.52-2.07.87-4.27,1.05-6.54.18-2.26.28-4.54.3-6.76.02-2.25,0-4.48-.07-6.69-.07-2.17-.11-4.24-.11-6.19ZM185.17,486.64l6.54.03c0,.84.03,1.73.06,2.66.05,1.31.09,2.64.12,4,.03,1.36.05,2.72.05,4.11,0,1.03-.03,2.03-.08,2.99-.98.17-1.97.3-2.96.39-1.22.12-2.48.18-3.73.18h-.35c-.55,0-1.08,0-1.58-.02-.47,0-.97-.03-1.5-.08-.53-.04-1.1-.11-1.7-.21-.4-.06-.85-.14-1.33-.24l-.03-7.66c0-.81.16-1.59.49-2.32.33-.74.8-1.4,1.39-1.96.6-.57,1.3-1.03,2.1-1.37.78-.34,1.6-.5,2.5-.5Z"/><path d="M234.97,514.7c-.87.85-1.31,1.9-1.31,3.13s.46,2.31,1.32,3.13c.86.82,1.94,1.24,3.21,1.24s2.35-.42,3.21-1.23c.87-.82,1.32-1.9,1.32-3.13s-.44-2.28-1.32-3.14c-1.72-1.66-4.69-1.68-6.43,0Z"/><path d="M336.05,466.26h-8.46v34.34h-10.97v-34.34h-8.46v34.34h-10.73c-.17-3.12-.63-5.83-1.37-8.09-.83-2.52-1.92-4.65-3.25-6.33-1.35-1.7-2.92-3.05-4.65-4-1.68-.93-3.49-1.65-5.37-2.13-1.84-.47-3.73-.78-5.63-.9-1.85-.12-3.61-.22-5.31-.29l-1.78-.05c-.44-.01-.98-.04-1.59-.08l-1.05-.08-.72,8.16,1.1.06c.36.02.74.03,1.16.02,1.6-.06,3.23,0,5.07.08,1.37.07,2.77.25,4.14.54,1.34.28,2.66.74,3.92,1.35,1.21.59,2.31,1.42,3.28,2.47.97,1.07,1.79,2.46,2.43,4.12.55,1.43.92,3.16,1.1,5.15h-32.55c-.17-3.13-.63-5.84-1.37-8.08-.82-2.52-1.92-4.65-3.25-6.33-1.35-1.7-2.92-3.04-4.64-4-1.68-.93-3.49-1.65-5.37-2.13-1.84-.47-3.73-.78-5.63-.9-1.85-.12-3.61-.22-5.31-.29l-1.8-.05c-.46-.01-.99-.04-1.61-.08l-1.05-.08-.09,1.05c-.09,1.09-.17,2.08-.23,2.98-.06.89-.15,1.89-.26,3.03l-.11,1.11,1.11.06c.36.02.74.03,1.15.02,1.59-.05,3.23,0,5.07.08,1.38.07,2.77.25,4.14.54,1.34.28,2.65.73,3.9,1.34,1.2.59,2.31,1.42,3.28,2.48.98,1.07,1.8,2.45,2.44,4.12.55,1.42.92,3.15,1.1,5.15h-11l-.31.04c-2.79.1-5.29.58-7.44,1.41-2.2.86-4.08,1.99-5.58,3.37-1.52,1.4-2.68,3-3.45,4.76-.77,1.76-1.17,3.6-1.17,5.47,0,2.34.61,4.68,1.82,6.96,1.21,2.27,3.02,4.26,5.38,5.92l.86.6.62-.85c.57-.78,1.15-1.62,1.76-2.48.6-.86,1.2-1.71,1.81-2.56l.62-.86-.85-.63c-1.19-.87-2.08-1.85-2.66-2.91-.57-1.04-.86-2.1-.86-3.15,0-.82.17-1.6.53-2.39.35-.77.89-1.48,1.63-2.11.76-.65,1.74-1.2,2.92-1.62,1.19-.43,2.66-.69,4.32-.78h95.09c1.15,0,2.15-.39,2.97-1.16.83-.78,1.28-1.79,1.28-2.93,0-.15-.01-.29-.04-.42v-38.02Z"/><path d="M370.96,500.14c-.58-.24-1.05-.54-1.41-.89-.35-.34-.6-.72-.75-1.14-.17-.46-.25-.92-.25-1.4s.1-.96.29-1.44c.2-.48.48-.89.87-1.27.39-.38.9-.69,1.54-.93.65-.24,1.45-.37,2.37-.37l12.2.04v-8.19h-12.2c-2.18,0-4.13.35-5.81,1.04-1.68.69-3.12,1.62-4.25,2.75-1.15,1.14-2.03,2.46-2.6,3.92-.58,1.45-.87,2.94-.87,4.44,0,.74.1,1.57.31,2.48.1.44.24.91.4,1.4h-3.93v8.18h29.94v-8.18h-13.64c-.87-.06-1.62-.21-2.21-.45Z"/><rect x="394.03" y="466.26" width="8.42" height="42.46"/><path d="M452.08,475.21c.63,0,1.22-.11,1.76-.33.54-.21,1.03-.52,1.47-.93.42-.4.75-.87.98-1.38.24-.53.36-1.11.36-1.73s-.12-1.19-.35-1.74c-.23-.52-.56-.99-.98-1.4-.41-.39-.9-.71-1.46-.93-1.66-.65-3.65-.31-4.95.93-.87.84-1.31,1.9-1.31,3.14s.44,2.3,1.32,3.13c.86.82,1.93,1.24,3.18,1.24Z"/><path d="M475.89,466.26h-8.46v34.34h-4.43v-.13h-6.64v-20.84h-8.46v20.97h-9.16c-.22-3.29-.69-6.19-1.39-8.64-.8-2.76-2.06-5.12-3.78-7.02-1.03-1.1-2.23-2.06-3.54-2.86-1.31-.8-2.83-1.47-4.53-1.98-1.65-.5-3.51-.87-5.55-1.11-1.98-.24-4.27-.36-6.71-.33h-1.06v1.07c0,1.09.01,2.08.04,2.98.02.89.04,1.9.04,3.03v1.08h1.08c3.68-.05,6.67.24,8.91.87,2.16.61,3.82,1.52,4.93,2.69.95,1.06,1.68,2.51,2.17,4.31.45,1.63.75,3.6.92,5.87h-20.53v8.18l30.8.03h0s1.16,0,1.16,0h1.57s0,0,0,0l8.47-.04c2.83,0,5.75-.02,8.71-.04v.09h11.21c1.14,0,2.14-.39,2.97-1.16.84-.78,1.28-1.79,1.28-2.93,0-.14-.01-.28-.04-.41v-38.02Z"/><rect x="483.12" y="466.26" width="8.42" height="42.46"/><path class="ax" d="M29.47,481.57c-.28-.62-.67-1.16-1.15-1.62-.48-.47-1.05-.83-1.69-1.08-.64-.25-1.31-.38-2-.38h-9.68c-2.05,0-4.01.38-5.83,1.12-1.8.74-3.39,1.77-4.74,3.06-1.35,1.29-2.43,2.82-3.21,4.55-.78,1.74-1.17,3.62-1.17,5.58v10.99c0,1.11.39,2.04,1.14,2.7.63.56,1.42.99,2.34,1.29.86.28,1.79.49,2.78.63.94.13,1.81.27,2.63.4v-.08s0,.09,0,.09c1,.12,2,.21,3,.28,1,.07,2.02.1,3.06.1,2,0,4-.12,5.94-.36,1.95-.24,3.86-.59,5.66-1.05l.21-.07c.86-.21,1.59-.65,2.18-1.32.66-.75.99-1.62.99-2.61l-.03-20.16c0-.73-.14-1.42-.43-2.05ZM21.44,486.67v13.83c-.93.15-1.87.26-2.8.35-1.19.1-2.43.16-3.69.16h-.35c-.56,0-1.08,0-1.58-.02-.47,0-.97-.03-1.5-.08-.53-.04-1.1-.11-1.7-.21-.4-.06-.84-.14-1.33-.24l-.03-7.66c0-.82.16-1.58.49-2.32.33-.74.79-1.4,1.38-1.96.6-.57,1.3-1.03,2.1-1.37.78-.34,1.6-.5,2.51-.5l6.5.03Z"/><path class="cd" d="M21.31,475.31c.63,0,1.23-.11,1.78-.33.55-.22,1.04-.53,1.44-.92.42-.39.75-.85.99-1.39.24-.53.36-1.11.36-1.73s-.12-1.2-.35-1.74c-.24-.54-.57-1.01-.98-1.4-.41-.4-.9-.71-1.45-.93-.54-.21-1.14-.33-1.78-.33-1.25,0-2.32.42-3.19,1.25-.89.84-1.34,1.9-1.34,3.14s.47,2.31,1.34,3.13c.87.82,1.94,1.23,3.19,1.23Z"/><path class="ca" d="M11.56,475.31c.63,0,1.23-.11,1.77-.33.55-.22,1.04-.53,1.45-.92.42-.39.75-.85.99-1.38.24-.53.36-1.11.36-1.73s-.12-1.2-.35-1.74c-.23-.54-.57-1.01-.98-1.4-.42-.4-.9-.71-1.45-.93-.54-.21-1.14-.33-1.77-.33-1.25,0-2.32.42-3.18,1.26-.87.84-1.31,1.9-1.31,3.13s.46,2.3,1.32,3.12c.86.82,1.93,1.24,3.17,1.24Z"/><path class="cf" d="M147.91,466.26h-8.46v34.34h-14.51l3.77-5.56c1.44-2.1,2.16-4.18,2.16-6.18,0-1.53-.34-2.96-1-4.26-.66-1.27-1.55-2.38-2.66-3.28-1.1-.9-2.39-1.6-3.82-2.09-1.44-.5-2.98-.75-4.57-.75h-8.05c-1.79,0-3.44.28-4.9.84-1.46.56-2.73,1.32-3.77,2.25-1.06.94-1.89,2.04-2.47,3.28-.58,1.24-.88,2.54-.88,3.86,0,1.03.17,2.07.51,3.12.34,1.04.88,2.11,1.62,3.19l3.8,5.56h-12.84v-17.92c0-.55-.12-1.08-.35-1.59-.22-.48-.52-.9-.91-1.27-.38-.36-.83-.64-1.34-.85-.51-.21-1.06-.31-1.59-.31h0c-1.84-.05-3.69-.08-5.54-.1l-5.5-.07c-2.07-.06-4.05.32-5.87,1.16-1.79.82-3.37,1.92-4.69,3.26-1.32,1.34-2.37,2.86-3.14,4.54-.78,1.7-1.17,3.41-1.17,5.08v8.07h-8.87s0-.06,0-.1l.07-2.66c0-.44.02-.85.02-1.22l-.02-1.33c-.01-.66-.04-1.41-.07-2.27-.03-.85-.06-1.75-.09-2.7-.02-.97-.05-1.87-.09-2.71-.04-.82-.06-1.53-.07-2.14-.01-.6-.02-.99-.02-1.17v-1.07h-8.46v1.07c0,.75.01,1.54.04,2.35.02.81.06,1.65.1,2.51.05,1.13.08,2.3.11,3.51.02,1.21.03,2.43.03,3.66,0,1.71-.05,3.44-.14,5.15-.09,1.69-.3,3.34-.62,4.9-.31,1.53-.76,3.01-1.33,4.39-.55,1.31-1.29,2.47-2.21,3.44-.91.97-2.05,1.75-3.38,2.34-1.35.6-3.01.94-4.93,1.02l-1.02.05v8.19l1.09-.03c3.07-.07,5.78-.59,8.04-1.54,2.27-.96,4.24-2.27,5.85-3.9,1.6-1.61,2.91-3.51,3.9-5.64.86-1.85,1.55-3.83,2.07-5.92h91.95c1.14,0,2.14-.39,2.97-1.16.83-.78,1.27-1.79,1.27-2.93,0-.15-.01-.29-.03-.42v-38.02ZM122.39,488.73c0,.54-.23,1.15-.69,1.81l-6.89,10.06h0l-6.89-10.06c-.44-.64-.66-1.25-.66-1.81,0-.23.06-.43.21-.66.16-.26.39-.48.69-.68.33-.22.72-.4,1.19-.54.44-.13.92-.2,1.43-.2h8.05c.46,0,.93.06,1.4.17.43.1.83.26,1.17.47.31.19.57.43.77.71.15.2.22.44.22.73ZM76.45,486.64h.25c.11,0,.47.01,1.1.03h1.2c.51,0,1.06,0,1.64.02l1.86.03c.29,0,.59,0,.88.01v13.87h-13.13v-8.11c0-.71.17-1.39.51-2.08.35-.71.83-1.34,1.42-1.9.59-.55,1.28-1.01,2.04-1.37.74-.34,1.47-.5,2.24-.5Z"/><rect class="bq" x="155.14" y="466.26" width="8.42" height="42.46"/><path class="ay" d="M200.12,483.62c0-.7-.14-1.39-.43-2.03-.28-.63-.66-1.18-1.14-1.64-.47-.44-1.03-.8-1.67-1.07-.65-.26-1.34-.4-2.07-.4h-9.65c-2.05,0-4.01.38-5.83,1.12-1.8.74-3.39,1.77-4.74,3.05-1.36,1.28-2.44,2.82-3.21,4.55-.78,1.74-1.17,3.62-1.17,5.58v10.99c0,1.32.61,2.43,1.77,3.22.98.67,2.23,1.18,3.7,1.52,1.43.33,3,.54,4.67.61,1.7.08,3.34.09,4.86.04s3.01-.17,4.27-.33c.41-.05.78-.1,1.12-.16-.43,1.2-.91,2.32-1.45,3.35-.55,1.07-1.27,2.02-2.13,2.83-.85.8-1.9,1.45-3.12,1.92-1.23.48-2.77.75-4.58.82l-1.03.04v8.21l1.13-.07c3-.18,5.63-.72,7.84-1.6,2.23-.89,4.14-2.06,5.68-3.48,1.55-1.43,2.82-3.1,3.78-4.97.94-1.83,1.68-3.82,2.21-5.92.52-2.07.87-4.27,1.05-6.54.18-2.26.28-4.54.3-6.76.02-2.25,0-4.48-.07-6.69-.07-2.17-.11-4.24-.11-6.19ZM185.17,486.64l6.54.03c0,.84.03,1.73.06,2.66.05,1.31.09,2.64.12,4,.03,1.36.05,2.72.05,4.11,0,1.03-.03,2.03-.08,2.99-.98.17-1.97.3-2.96.39-1.22.12-2.48.18-3.73.18h-.35c-.55,0-1.08,0-1.58-.02-.47,0-.97-.03-1.5-.08-.53-.04-1.1-.11-1.7-.21-.4-.06-.85-.14-1.33-.24l-.03-7.66c0-.81.16-1.59.49-2.32.33-.74.8-1.4,1.39-1.96.6-.57,1.3-1.03,2.1-1.37.78-.34,1.6-.5,2.5-.5Z"/><path class="av" d="M234.97,514.7c-.87.85-1.31,1.9-1.31,3.13s.46,2.31,1.32,3.13c.86.82,1.94,1.24,3.21,1.24s2.35-.42,3.21-1.23c.87-.82,1.32-1.9,1.32-3.13s-.44-2.28-1.32-3.14c-1.72-1.66-4.69-1.68-6.43,0Z"/><path class="bx" d="M336.05,466.26h-8.46v34.34h-10.97v-34.34h-8.46v34.34h-10.73c-.17-3.12-.63-5.83-1.37-8.09-.83-2.52-1.92-4.65-3.25-6.33-1.35-1.7-2.92-3.05-4.65-4-1.68-.93-3.49-1.65-5.37-2.13-1.84-.47-3.73-.78-5.63-.9-1.85-.12-3.61-.22-5.31-.29l-1.78-.05c-.44-.01-.98-.04-1.59-.08l-1.05-.08-.72,8.16,1.1.06c.36.02.74.03,1.16.02,1.6-.06,3.23,0,5.07.08,1.37.07,2.77.25,4.14.54,1.34.28,2.66.74,3.92,1.35,1.21.59,2.31,1.42,3.28,2.47.97,1.07,1.79,2.46,2.43,4.12.55,1.43.92,3.16,1.1,5.15h-32.55c-.17-3.13-.63-5.84-1.37-8.08-.82-2.52-1.92-4.65-3.25-6.33-1.35-1.7-2.92-3.04-4.64-4-1.68-.93-3.49-1.65-5.37-2.13-1.84-.47-3.73-.78-5.63-.9-1.85-.12-3.61-.22-5.31-.29l-1.8-.05c-.46-.01-.99-.04-1.61-.08l-1.05-.08-.09,1.05c-.09,1.09-.17,2.08-.23,2.98-.06.89-.15,1.89-.26,3.03l-.11,1.11,1.11.06c.36.02.74.03,1.15.02,1.59-.05,3.23,0,5.07.08,1.38.07,2.77.25,4.14.54,1.34.28,2.65.73,3.9,1.34,1.2.59,2.31,1.42,3.28,2.48.98,1.07,1.8,2.45,2.44,4.12.55,1.42.92,3.15,1.1,5.15h-11l-.31.04c-2.79.1-5.29.58-7.44,1.41-2.2.86-4.08,1.99-5.58,3.37-1.52,1.4-2.68,3-3.45,4.76-.77,1.76-1.17,3.6-1.17,5.47,0,2.34.61,4.68,1.82,6.96,1.21,2.27,3.02,4.26,5.38,5.92l.86.6.62-.85c.57-.78,1.15-1.62,1.76-2.48.6-.86,1.2-1.71,1.81-2.56l.62-.86-.85-.63c-1.19-.87-2.08-1.85-2.66-2.91-.57-1.04-.86-2.1-.86-3.15,0-.82.17-1.6.53-2.39.35-.77.89-1.48,1.63-2.11.76-.65,1.74-1.2,2.92-1.62,1.19-.43,2.66-.69,4.32-.78h95.09c1.15,0,2.15-.39,2.97-1.16.83-.78,1.28-1.79,1.28-2.93,0-.15-.01-.29-.04-.42v-38.02Z"/><path class="as" d="M370.96,500.14c-.58-.24-1.05-.54-1.41-.89-.35-.34-.6-.72-.75-1.14-.17-.46-.25-.92-.25-1.4s.1-.96.29-1.44c.2-.48.48-.89.87-1.27.39-.38.9-.69,1.54-.93.65-.24,1.45-.37,2.37-.37l12.2.04v-8.19h-12.2c-2.18,0-4.13.35-5.81,1.04-1.68.69-3.12,1.62-4.25,2.75-1.15,1.14-2.03,2.46-2.6,3.92-.58,1.45-.87,2.94-.87,4.44,0,.74.1,1.57.31,2.48.1.44.24.91.4,1.4h-3.93v8.18h29.94v-8.18h-13.64c-.87-.06-1.62-.21-2.21-.45Z"/><rect class="bf" x="394.03" y="466.26" width="8.42" height="42.46"/><path class="au" d="M452.08,475.21c.63,0,1.22-.11,1.76-.33.54-.21,1.03-.52,1.47-.93.42-.4.75-.87.98-1.38.24-.53.36-1.11.36-1.73s-.12-1.19-.35-1.74c-.23-.52-.56-.99-.98-1.4-.41-.39-.9-.71-1.46-.93-1.66-.65-3.65-.31-4.95.93-.87.84-1.31,1.9-1.31,3.14s.44,2.3,1.32,3.13c.86.82,1.93,1.24,3.18,1.24Z"/><path class="bj" d="M475.89,466.26h-8.46v34.34h-4.43v-.13h-6.64v-20.84h-8.46v20.97h-9.16c-.22-3.29-.69-6.19-1.39-8.64-.8-2.76-2.06-5.12-3.78-7.02-1.03-1.1-2.23-2.06-3.54-2.86-1.31-.8-2.83-1.47-4.53-1.98-1.65-.5-3.51-.87-5.55-1.11-1.98-.24-4.27-.36-6.71-.33h-1.06v1.07c0,1.09.01,2.08.04,2.98.02.89.04,1.9.04,3.03v1.08h1.08c3.68-.05,6.67.24,8.91.87,2.16.61,3.82,1.52,4.93,2.69.95,1.06,1.68,2.51,2.17,4.31.45,1.63.75,3.6.92,5.87h-20.53v8.18l30.8.03h0s1.16,0,1.16,0h1.57s0,0,0,0l8.47-.04c2.83,0,5.75-.02,8.71-.04v.09h11.21c1.14,0,2.14-.39,2.97-1.16.84-.78,1.28-1.79,1.28-2.93,0-.14-.01-.28-.04-.41v-38.02Z"/><rect class="bn" x="483.12" y="466.26" width="8.42" height="42.46"/></svg>